<svg width="1380" height="1375" xmlns="http://www.w3.org/2000/svg" xmlns:xlink="http://www.w3.org/1999/xlink" xml:space="preserve" overflow="hidden"><defs><clipPath id="clip0"><rect x="1732" y="632" width="1380" height="1375"/></clipPath><clipPath id="clip1"><rect x="1736" y="632" width="1372" height="1374"/></clipPath><clipPath id="clip2"><rect x="1736" y="632" width="1372" height="1374"/></clipPath><clipPath id="clip3"><rect x="1736" y="632" width="1372" height="1374"/></clipPath><clipPath id="clip4"><path d="M2422.6 633.243 3065.68 1276.32 2422.6 1919.4 1779.52 1276.32Z" fill-rule="nonzero" clip-rule="nonzero"/></clipPath><clipPath id="clip5"><path d="M2422.6 633.243 3065.68 1276.32 2422.6 1919.4 1779.52 1276.32Z" fill-rule="evenodd" clip-rule="evenodd"/></clipPath><clipPath id="clip6"><path d="M2422.6 633.243 3065.68 1276.32 2422.6 1919.4 1779.52 1276.32Z" fill-rule="evenodd" clip-rule="evenodd"/></clipPath><clipPath id="clip7"><path d="M2422.6 816.979 2881.94 1276.32 2422.6 1735.66 1963.26 1276.32Z" fill-rule="nonzero" clip-rule="nonzero"/></clipPath><clipPath id="clip8"><path d="M2422.6 816.979 2881.94 1276.32 2422.6 1735.66 1963.26 1276.32Z" fill-rule="evenodd" clip-rule="evenodd"/></clipPath><clipPath id="clip9"><path d="M2422.6 816.979 2881.94 1276.32 2422.6 1735.66 1963.26 1276.32Z" fill-rule="evenodd" clip-rule="evenodd"/></clipPath></defs><g clip-path="url(#clip0)" transform="translate(-1732 -632)"><g clip-path="url(#clip1)"><g clip-path="url(#clip2)"><g clip-path="url(#clip3)"><path d="M649.797 285.625C428.437 285.625 249.922 464.141 249.922 685.5 249.922 755.478 268.487 821.172 299.906 878.297 329.897 846.878 362.744 815.459 398.447 781.184 488.419 696.925 594.1 611.237 682.644 548.4 688.356 544.116 694.069 541.259 701.209 541.259 716.919 541.259 729.772 554.112 729.772 569.822 729.772 579.819 725.487 586.959 718.347 592.672L718.347 592.672C591.244 684.072 422.725 825.456 308.475 953.987 308.475 953.987 292.766 971.125 285.625 979.694 221.359 1055.38 178.516 1123.93 178.516 1172.49L264.203 1172.49C264.203 1141.07 314.187 1072.52 389.878 991.119 459.856 1051.1 549.828 1086.8 649.797 1086.8 721.203 1086.8 789.753 1068.24 848.306 1033.96 1153.92 864.016 1192.48 551.256 1192.48 199.937 1192.48 199.937 859.731 291.337 649.797 285.625Z" fill="#00B050" fill-rule="nonzero" fill-opacity="1" transform="matrix(1 0 0 1.00073 1737 633)"/></g></g></g><path d="M2254.8 1120.51C2370.52 1004.8 2535.53 982.195 2623.36 1070.03 2711.19 1157.86 2688.59 1322.87 2572.87 1438.58 2457.16 1554.3 2292.15 1576.9 2204.32 1489.07 2116.48 1401.24 2139.09 1236.23 2254.8 1120.51Z" fill="#FFD966" fill-rule="evenodd" fill-opacity="1"/><g clip-path="url(#clip4)"><g clip-path="url(#clip5)"><g clip-path="url(#clip6)"><path d="M2623.6 1075.4C2705.24 1157.03 2639.53 1354.21 2530.71 1463.04 2482.6 1511.15 2425.37 1540.15 2369.56 1544.69 2312.75 1549.32 2259.3 1528.34 2214.98 1484.02 2106.32 1375.36 2154.58 1249.68 2235.96 1168.29 2336.69 1067.56 2527.44 979.24 2623.6 1075.4M2663.79 1035.21C2541.84 913.25 2321.33 1002.55 2195.77 1128.1 2080.71 1243.16 2052.83 1402.26 2174.79 1524.21 2293.39 1642.82 2455.84 1618.29 2570.9 1503.23 2696.45 1377.67 2775.11 1146.52 2663.79 1035.21Z" fill="#F3B22F" fill-rule="nonzero" fill-opacity="1"/><path d="M2312.65 1179.76C2311.94 1179.06 2311.29 1178.29 2310.7 1177.49 2304.55 1169.02 2306.43 1157.17 2314.9 1151.02 2357.12 1119.7 2404.49 1096 2454.88 1080.99 2469.14 1076.98 2483.74 1074.25 2498.49 1072.83 2508.92 1071.9 2518.12 1079.59 2519.06 1090.01 2519.99 1100.43 2512.3 1109.64 2501.88 1110.57 2489.38 1111.79 2477.01 1114.12 2464.93 1117.53 2418.98 1131.43 2375.76 1153.13 2337.16 1181.68 2329.63 1187.15 2319.24 1186.34 2312.65 1179.76Z" fill="#F3B22F" fill-rule="nonzero" fill-opacity="1"/></g></g></g><path d="M2304.69 1160.9C2387.88 1077.7 2507.62 1062.54 2572.12 1127.04 2636.62 1191.55 2621.47 1311.28 2538.27 1394.48 2455.07 1477.68 2335.34 1492.83 2270.83 1428.33 2206.33 1363.83 2221.49 1244.09 2304.69 1160.9Z" stroke="#2F528F" stroke-width="4.58333" stroke-linecap="butt" stroke-linejoin="miter" stroke-miterlimit="8" stroke-opacity="1" fill="#00B0F0" fill-rule="evenodd" fill-opacity="1"/><g clip-path="url(#clip7)"><g clip-path="url(#clip8)"><g clip-path="url(#clip9)"><path d="M2566.17 1132.8C2624.48 1191.11 2577.55 1331.96 2499.82 1409.69 2465.45 1444.05 2424.58 1464.77 2384.71 1468.02 2344.14 1471.32 2305.96 1456.34 2274.3 1424.68 2196.69 1347.06 2231.15 1257.29 2289.29 1199.16 2361.24 1127.21 2497.49 1064.12 2566.17 1132.8M2594.88 1104.1C2507.77 1016.98 2350.26 1080.77 2260.58 1170.45 2178.39 1252.64 2158.48 1366.27 2245.59 1453.39 2330.31 1538.1 2446.34 1520.58 2528.53 1438.4 2618.21 1348.72 2674.39 1183.61 2594.88 1104.1Z" fill="#002060" fill-rule="nonzero" fill-opacity="1"/><path d="M2344.06 1207.35C2343.56 1206.85 2343.09 1206.3 2342.67 1205.72 2338.28 1199.67 2339.62 1191.21 2345.67 1186.82 2375.83 1164.45 2409.67 1147.52 2445.65 1136.8 2455.85 1133.93 2466.27 1131.98 2476.81 1130.97 2484.25 1130.3 2490.83 1135.8 2491.5 1143.24 2492.16 1150.68 2486.67 1157.26 2479.23 1157.93 2470.3 1158.8 2461.47 1160.46 2452.84 1162.9 2420.01 1172.83 2389.14 1188.33 2361.57 1208.72 2356.19 1212.63 2348.77 1212.05 2344.06 1207.35Z" fill="#002060" fill-rule="nonzero" fill-opacity="1"/></g></g></g></g></svg>